<svg viewBox="0 0 48 48" fill="#284480" xmlns="http://www.w3.org/2000/svg">
  <path
    d="M24.433 42.433C19.433 42.433 15.183 40.683 11.683 37.183C8.18298 33.683 6.43298 29.433 6.43298 24.433C6.43298 19.433 8.18298 15.183 11.683 11.683C15.183 8.18299 19.433 6.43299 24.433 6.43299C24.8997 6.43299 25.358 6.44966 25.808 6.48299C26.258 6.51632 26.6997 6.56632 27.133 6.63299C25.7663 7.59966 24.6747 8.85799 23.858 10.408C23.0413 11.958 22.633 13.633 22.633 15.433C22.633 18.433 23.683 20.983 25.783 23.083C27.883 25.183 30.433 26.233 33.433 26.233C35.2663 26.233 36.9497 25.8247 38.483 25.008C40.0163 24.1913 41.2663 23.0997 42.233 21.733C42.2997 22.1663 42.3497 22.608 42.383 23.058C42.4163 23.508 42.433 23.9663 42.433 24.433C42.433 29.433 40.683 33.683 37.183 37.183C33.683 40.683 29.433 42.433 24.433 42.433Z" />
</svg>