<svg width="25" height="25" viewBox="0 0 25 25" fill="none" xmlns="http://www.w3.org/2000/svg">
<path d="M12.5 21.5L11.05 20.2C9.36667 18.6833 7.975 17.375 6.875 16.275C5.775 15.175 4.9 14.1875 4.25 13.3125C3.6 12.4375 3.14583 11.6333 2.8875 10.9C2.62917 10.1667 2.5 9.41666 2.5 8.64999C2.5 7.08333 3.025 5.77499 4.075 4.72499C5.125 3.67499 6.43333 3.14999 8 3.14999C8.86667 3.14999 9.69167 3.33333 10.475 3.69999C11.2583 4.06666 11.9333 4.58333 12.5 5.24999C13.0667 4.58333 13.7417 4.06666 14.525 3.69999C15.3083 3.33333 16.1333 3.14999 17 3.14999C18.5667 3.14999 19.875 3.67499 20.925 4.72499C21.975 5.77499 22.5 7.08333 22.5 8.64999C22.5 9.41666 22.3708 10.1667 22.1125 10.9C21.8542 11.6333 21.4 12.4375 20.75 13.3125C20.1 14.1875 19.225 15.175 18.125 16.275C17.025 17.375 15.6333 18.6833 13.95 20.2L12.5 21.5Z" fill="#FE0000"/>
</svg>
