<svg width="48" height="48" viewBox="0 0 48 48" fill="none" xmlns="http://www.w3.org/2000/svg">
  <path
    d="M24 34C21.2333 34 18.875 33.025 16.925 31.075C14.975 29.125 14 26.7667 14 24C14 21.2333 14.975 18.875 16.925 16.925C18.875 14.975 21.2333 14 24 14C26.7667 14 29.125 14.975 31.075 16.925C33.025 18.875 34 21.2333 34 24C34 26.7667 33.025 29.125 31.075 31.075C29.125 33.025 26.7667 34 24 34ZM10 26H2V22H10V26ZM46 26H38V22H46V26ZM22 10V2H26V10H22ZM22 46V38H26V46H22ZM12.8 15.5L7.75 10.65L10.6 7.7L15.4 12.7L12.8 15.5ZM37.4 40.3L32.55 35.25L35.2 32.5L40.25 37.35L37.4 40.3ZM32.5 12.8L37.35 7.75L40.3 10.6L35.3 15.4L32.5 12.8ZM7.7 37.4L12.75 32.55L15.5 35.2L10.65 40.25L7.7 37.4Z"
    fill="#FDFDFD" />
</svg>