<svg width="130" height="223" viewBox="0 0 130 223" fill="none" xmlns="http://www.w3.org/2000/svg">
  <path d="M39 31H20.5L32 220H45L39 31Z" fill="#592810" />
  <path d="M20 31H38.5L42.5 22.5L41 10.5L35 16.5L37 12.5H35L37 5.5L41 1L34 3L27.5 12L30 5.5L17.5 20L20 31Z"
    fill="#FDD71E" />
  <path d="M73.5 31.5H54.5L58.5 222H69.5L73.5 31.5Z" fill="#592810" />
  <path d="M54.5 31.5H73L77 23L75.5 11L69.5 17L71.5 13H69.5L71.5 6L75.5 1.5L68.5 3.5L62 12.5L64.5 6L52 20.5L54.5 31.5Z"
    fill="#FDD71E" />
  <path d="M107.5 31H89L84 220.5H95L107.5 31Z" fill="#592810" />
  <path
    d="M88.5 31.5H107L111 23L109.5 11L103.5 17L105.5 13H103.5L105.5 6L109.5 1.5L102.5 3.5L96 12.5L98.5 6L86 20.5L88.5 31.5Z"
    fill="#FDD71E" />
  <path
    d="M54.5 31.5H73.5L69.5 222H58.5L54.5 31.5ZM54.5 31.5H73L77 23L75.5 11L69.5 17L71.5 13H69.5L71.5 6L75.5 1.5L68.5 3.5L62 12.5L64.5 6L52 20.5L54.5 31.5ZM20.5 31H39L45 220H32L20.5 31ZM38.5 31H20L17.5 20L30 5.5L27.5 12L34 3L41 1L37 5.5L35 12.5H37L35 16.5L41 10.5L42.5 22.5L38.5 31ZM89 31H107.5L95 220.5H84L89 31ZM107 31.5H88.5L86 20.5L98.5 6L96 12.5L102.5 3.5L109.5 1.5L105.5 6L103.5 13H105.5L103.5 17L109.5 11L111 23L107 31.5Z"
    stroke="black" />
  <path d="M8 55.5H119.5L66 117L116 172.5L66 184L14 175L66 117L8 55.5Z" fill="#2C4073" />
  <path d="M14 174.5L8 55.5L66 117L119.5 55.5L116 172.5L66 117L14 174.5Z" fill="#F3F4F4" />
  <path
    d="M8 55.5H119.5M8 55.5L66 117M8 55.5L14 174.5L66 117M119.5 55.5L66 117M119.5 55.5L116 172.5M66 117L116 172.5M66 117L14 175L66 184L116 172.5"
    stroke="black" />
  <path
    d="M76.5 100H53V91.5L41.5 87.5V79.5L45 74L50.5 68.5L58 65H64H68.5L72 66L79 68.5L85.5 74L87.5 81V85.5L76.5 91.5V100Z"
    fill="#E3E4E4" />
  <path
    d="M53 136.5H76.5V145L88 149V157L84.5 162.5L79 168L71.5 171.5H65.5H61L57.5 170.5L50.5 168L44 162.5L42 155.5V151L53 145V136.5Z"
    fill="#E3E4E4" />
  <path
    d="M87 104L72.5 113.5V118.5L84 129L93.5 138.5L99 137L104.5 132.5L109 127.5L112.5 120V113.5L109 106.5L104.5 102.5L99 99L95 96.5L87 104Z"
    fill="#6292B1" />
  <path
    d="M43.5 129L58 119.5V114.5L46.5 104L37 94.5L31.5 96L26 100.5L21.5 105.5L18 113V119.5L21.5 126.5L26 130.5L31.5 134L35.5 136.5L43.5 129Z"
    fill="#6292B1" />
  <path
    d="M87.5 81V85.5L76.5 91.5V100H53V91.5L41.5 87.5V79.5M87.5 81L81.5 82.5M87.5 81L85.5 74M85.5 74L81.5 77.5M85.5 74L79 68.5M79 68.5L72 81M79 68.5L72 66M72 66L69.5 74M72 66L68.5 65H64M64 65V74M64 65H58M58 65L60 74M58 65L50.5 68.5M50.5 68.5L58 79.5M50.5 68.5L45 74M45 74L50.5 79.5M45 74L41.5 79.5M41.5 79.5L47 82.5M42 155.5V151L53 145V136.5H76.5V145L88 149V157M42 155.5L48 154M42 155.5L44 162.5M44 162.5L48 159M44 162.5L50.5 168M50.5 168L57.5 155.5M50.5 168L57.5 170.5M57.5 170.5L60 162.5M57.5 170.5L61 171.5H65.5M65.5 171.5V162.5M65.5 171.5H71.5M71.5 171.5L69.5 162.5M71.5 171.5L79 168M79 168L71.5 157M79 168L84.5 162.5M84.5 162.5L79 157M84.5 162.5L88 157M88 157L82.5 154M99 99L95 96.5L87 104L72.5 113.5V118.5L84 129L93.5 138.5L99 137M99 99L95 102.5M99 99L104.5 102.5M104.5 102.5L82.5 110.5M104.5 102.5L109 106.5M109 106.5L89 110.5M109 106.5L112.5 113.5M112.5 113.5H103M112.5 113.5V120M112.5 120L103 118.5M112.5 120L109 127.5M109 127.5L103 124M109 127.5L104.5 132.5M104.5 132.5L99 129M104.5 132.5L99 137M99 137L85.5 126.5M31.5 134L35.5 136.5L43.5 129L58 119.5V114.5L46.5 104L37 94.5L31.5 96M31.5 134L35.5 130.5M31.5 134L26 130.5M26 130.5L48 122.5M26 130.5L21.5 126.5M21.5 126.5L41.5 122.5M21.5 126.5L18 119.5M18 119.5H27.5M18 119.5V113M18 113L27.5 114.5M18 113L21.5 105.5M21.5 105.5L27.5 109M21.5 105.5L26 100.5M26 100.5L31.5 104M26 100.5L31.5 96M31.5 96L45 106.5"
    stroke="black" />
  <rect x="0.5" y="187" width="129" height="22" fill="#2B4072" stroke="black" />
  <path
    d="M47.2486 191.455H50.3239V200.901C50.3239 201.961 50.0705 202.889 49.5639 203.685C49.062 204.48 48.3589 205.1 47.4545 205.545C46.5502 205.986 45.4967 206.206 44.294 206.206C43.0866 206.206 42.0308 205.986 41.1264 205.545C40.2221 205.1 39.5189 204.48 39.017 203.685C38.5152 202.889 38.2642 201.961 38.2642 200.901V191.455H41.3395V200.638C41.3395 201.192 41.4602 201.684 41.7017 202.115C41.9479 202.546 42.2936 202.884 42.7386 203.131C43.1837 203.377 43.7022 203.5 44.294 203.5C44.8906 203.5 45.4091 203.377 45.8494 203.131C46.2945 202.884 46.6378 202.546 46.8793 202.115C47.1255 201.684 47.2486 201.192 47.2486 200.638V191.455ZM52.854 206V191.455H62.6552V193.99H55.9293V197.456H62.1509V199.991H55.9293V203.464H62.6836V206H52.854ZM65.1001 206V191.455H74.7308V193.99H68.1754V197.456H74.0916V199.991H68.1754V206H65.1001ZM84.69 195.638C84.6332 195.065 84.3893 194.62 83.9585 194.303C83.5276 193.985 82.9428 193.827 82.2042 193.827C81.7023 193.827 81.2785 193.898 80.9329 194.04C80.5872 194.177 80.3221 194.369 80.1374 194.615C79.9575 194.861 79.8675 195.141 79.8675 195.453C79.8581 195.714 79.9125 195.941 80.0309 196.135C80.154 196.329 80.3221 196.497 80.5352 196.639C80.7482 196.777 80.9944 196.897 81.2738 197.001C81.5531 197.101 81.8514 197.186 82.1687 197.257L83.4755 197.57C84.11 197.712 84.6924 197.901 85.2227 198.138C85.753 198.375 86.2122 198.666 86.6005 199.011C86.9888 199.357 87.2894 199.764 87.5025 200.233C87.7203 200.702 87.8316 201.239 87.8363 201.845C87.8316 202.735 87.6043 203.507 87.1545 204.161C86.7094 204.809 86.0655 205.313 85.2227 205.673C84.3846 206.028 83.3737 206.206 82.19 206.206C81.0157 206.206 79.993 206.026 79.1218 205.666C78.2553 205.306 77.5782 204.774 77.0906 204.068C76.6076 203.358 76.3543 202.48 76.3306 201.433H79.3065C79.3396 201.921 79.4793 202.328 79.7255 202.655C79.9764 202.977 80.3103 203.221 80.7269 203.386C81.1483 203.547 81.6242 203.628 82.1545 203.628C82.6753 203.628 83.1275 203.552 83.511 203.401C83.8993 203.249 84.1999 203.038 84.413 202.768C84.6261 202.499 84.7326 202.188 84.7326 201.838C84.7326 201.511 84.6355 201.237 84.4414 201.014C84.252 200.792 83.9727 200.602 83.6033 200.446C83.2388 200.29 82.7913 200.148 82.261 200.02L80.6772 199.622C79.4509 199.324 78.4826 198.857 77.7724 198.223C77.0621 197.589 76.7094 196.734 76.7141 195.659C76.7094 194.778 76.9438 194.009 77.4173 193.351C77.8955 192.693 78.5513 192.179 79.3846 191.81C80.2179 191.44 81.1649 191.256 82.2255 191.256C83.305 191.256 84.2473 191.44 85.0522 191.81C85.8619 192.179 86.4916 192.693 86.9414 193.351C87.3912 194.009 87.6232 194.771 87.6374 195.638H84.69Z"
    fill="white" />
</svg>